<?xml version="1.0" encoding="UTF-8"?>
<svg xmlns="http://www.w3.org/2000/svg" xmlns:xlink="http://www.w3.org/1999/xlink" width="250px" height="184px" viewBox="0 0 250 184" version="1.1">
<g id="surface1">
<path style=" stroke:none;fill-rule:evenodd;fill:rgb(18.431373%,50.196078%,92.941176%);fill-opacity:1;" d="M 220.582031 144.238281 L 189.835938 90.667969 C 187.628906 86.832031 182.128906 86.832031 179.925781 90.667969 L 149.175781 144.238281 C 146.972656 148.078125 149.726562 152.871094 154.128906 152.871094 L 215.628906 152.871094 C 220.03125 152.871094 222.785156 148.078125 220.582031 144.238281 Z M 214.597656 76.285156 C 201.394531 53.265625 168.367188 53.265625 155.152344 76.285156 L 124.40625 129.855469 C 111.191406 152.871094 127.707031 181.636719 154.128906 181.636719 L 215.628906 181.636719 C 242.050781 181.636719 258.558594 152.871094 245.355469 129.855469 Z M 214.597656 76.285156 "/>
<path style=" stroke:none;fill-rule:evenodd;fill:rgb(18.431373%,50.196078%,92.941176%);fill-opacity:1;" d="M 162.644531 143.3125 L 100.984375 35.890625 C 98.785156 32.0625 93.277344 32.0625 91.078125 35.890625 L 29.417969 143.3125 C 27.214844 147.152344 29.96875 151.945312 34.371094 151.945312 L 157.691406 151.945312 C 162.09375 151.945312 164.839844 147.152344 162.644531 143.3125 Z M 125.753906 21.507812 C 112.542969 -1.507812 79.519531 -1.507812 66.308594 21.507812 L 4.644531 128.929688 C -8.558594 151.945312 7.949219 180.710938 34.371094 180.710938 L 157.691406 180.710938 C 184.113281 180.710938 200.621094 151.945312 187.417969 128.929688 Z M 125.753906 21.507812 "/>
</g>
</svg>
